Coordinates
version=1
nRows=39
nColumns=18
inDegrees=yes

Units are S.I. units (second, meters, Newtons, ...)
If the header above contains a line with 'inDegrees', this indicates whether rotational values are in degrees (yes) or radians (no).

endheader
time	ground_thorax_rot_x	ground_thorax_rot_y	ground_thorax_rot_z	ground_thorax_tx	ground_thorax_ty	ground_thorax_tz	clav_prot	clav_elev	scapula_abduction	scapula_elevation	scapula_upward_rot	scapula_winging	plane_elv	shoulder_elv	axial_rot	elbow_flexion	pro_sup
      2.31000000	      2.72707697	     -7.52946390	     -8.35965206	     -0.00650763	      0.00436991	      0.00405713	    -20.33877404	     -0.30143792	     -8.70585967	     -1.29854768	     14.70584370	      3.77005066	     -7.48575838	     14.75658676	     42.04830824	      0.00000000	     34.32000000
      2.32000000	      2.71661004	     -7.66009241	     -8.32678873	     -0.00651972	      0.00436770	      0.00405818	    -20.08709103	     -0.87121864	     -8.35075744	     -1.60280793	     14.26954898	      3.97930075	     -8.61769717	     15.16901106	     42.96971571	      0.00000000	     34.32000000
      2.33000000	      2.90221018	     -7.56283683	     -8.38288082	     -0.00647677	      0.00423349	      0.00412496	    -20.10041582	     -1.15449873	     -8.36869225	     -1.78445013	     14.13820806	      4.07613459	     -9.14939878	     15.40869553	     43.33919034	      0.00000000	     34.32000000
      2.34000000	      2.79113145	     -7.47090852	     -8.23144514	     -0.00644926	      0.00444088	      0.00399926	    -20.04043508	     -1.53192315	     -8.09785970	     -2.09341684	     14.23155011	      4.12694468	    -12.20947091	     14.93214398	     48.46874250	      0.00000000	     34.32000000
      2.35000000	      2.85863413	     -7.47045928	     -8.23496124	     -0.00647198	      0.00425357	      0.00404889	    -20.03230644	     -1.55701127	     -8.09768337	     -2.10252502	     14.19551562	      4.14152418	    -12.21999084	     14.90884494	     48.46811220	      0.00000000	     34.32000000
      2.36000000	      2.93068573	     -7.40444289	     -8.27263994	     -0.00646981	      0.00430346	      0.00394332	    -20.04557606	     -1.79622855	     -8.09229684	     -2.26807078	     14.12936921	      4.21602593	    -12.51239773	     15.13878037	     48.51382836	      0.00000000	     34.32000000
      2.37000000	      2.64318716	     -7.17594902	     -8.28467254	     -0.00638099	      0.00441126	      0.00358574	    -20.13984579	     -2.42117240	     -8.25401127	     -2.67424758	     13.84278555	      4.45550659	    -13.68701563	     15.39234483	     48.56875710	      0.00000000	     34.32000000
      2.38000000	      2.76141926	     -7.10383898	     -8.31496540	     -0.00619908	      0.00428790	      0.00350974	    -20.15153959	     -2.45554554	     -8.24806548	     -2.70876318	     13.87174371	      4.45784609	    -13.73866948	     15.51084669	     48.58836620	      0.00000000	     34.32000000
      2.39000000	      2.82023326	     -6.97911184	     -8.35547088	     -0.00604494	      0.00424753	      0.00335506	    -20.16043115	     -2.48603595	     -8.26994833	     -2.72601357	     13.84704961	      4.47316227	    -13.78182693	     15.62909254	     48.60506247	      0.00000000	     34.32000000
      2.40000000	      2.83354374	     -6.92679618	     -8.34987679	     -0.00593442	      0.00427384	      0.00334420	    -20.15561716	     -2.49989148	     -8.27004114	     -2.73082760	     13.82620277	      4.48172651	    -13.78106112	     15.64269993	     48.60727779	      0.00000000	     34.32000000
      2.41000000	      2.79848759	     -6.54568396	     -8.24858056	     -0.00604236	      0.00439906	      0.00313064	    -20.23396205	     -2.62075782	     -8.61390177	     -2.71990094	     13.41947347	      4.62934520	    -13.78171629	     15.99362845	     48.61303364	      0.00000000	     34.32000000
      2.42000000	      2.85130211	     -6.51869443	     -8.26224456	     -0.00592048	      0.00424495	      0.00322164	    -20.22490015	     -2.64047108	     -8.60771032	     -2.72765480	     13.39379721	      4.64026493	    -13.78350781	     15.98074326	     48.61158815	      0.00000000	     34.32000000
      2.43000000	      2.98061069	     -6.35540012	     -8.38180980	     -0.00583441	      0.00411983	      0.00304412	    -20.22576493	     -2.72747836	     -8.61581907	     -2.78056506	     13.34237098	      4.67649604	    -13.80421553	     16.13229516	     48.63014931	      0.00000000	     34.32000000
      2.44000000	      3.03601330	     -6.32077753	     -8.38002466	     -0.00572202	      0.00403027	      0.00308323	    -20.21812020	     -2.76773475	     -8.61495475	     -2.80031088	     13.30239987	      4.69674242	    -13.80586449	     16.11765761	     48.63112939	      0.00000000	     34.32000000
      2.45000000	      3.09356433	     -6.11277706	     -8.44920019	     -0.00574163	      0.00403566	      0.00300099	    -20.20979232	     -2.91046095	     -8.64869281	     -2.86961532	     13.15410158	      4.77252799	    -13.80579648	     16.30594370	     48.66278633	      0.00000000	     34.32000000
      2.46000000	      2.99732459	     -5.81260074	     -8.42552936	     -0.00580859	      0.00413605	      0.00300971	    -20.26946618	     -3.27999728	     -8.98719314	     -3.00327329	     12.58178755	      5.02866559	    -13.71712653	     16.69992722	     48.69843665	      0.00000000	     34.32000000
      2.47000000	      3.18981099	     -5.75044744	     -8.49610326	     -0.00576160	      0.00399238	      0.00325355	    -20.25242033	     -3.33988783	     -8.99701353	     -3.02252615	     12.48571713	      5.06833791	    -13.72319855	     16.85064162	     48.70600319	      0.00000000	     34.32000000
      2.48000000	      3.29440033	     -5.73596068	     -8.52215371	     -0.00572257	      0.00371431	      0.00347374	    -20.23416948	     -3.37152698	     -8.99587767	     -3.02755867	     12.41775425	      5.09278073	    -13.73543426	     16.83507178	     48.70468813	      0.00000000	     34.32000000
      2.49000000	      3.44377628	     -5.57979693	     -8.58487167	     -0.00570625	      0.00370901	      0.00342381	    -20.20013740	     -3.52262955	     -8.99995846	     -3.09346606	     12.23841342	      5.17751707	    -13.79576478	     17.07235572	     48.74776403	      0.00000000	     34.32000000
      2.50000000	      3.51209461	     -5.55171406	     -8.60067979	     -0.00558634	      0.00360864	      0.00344219	    -20.17800151	     -3.55737280	     -8.99504528	     -3.09880016	     12.16360655	      5.20418865	    -13.80934246	     17.02706422	     48.74824596	      0.00000000	     34.32000000
      2.51000000	      3.55332207	     -5.53042556	     -8.62102736	     -0.00559519	      0.00355088	      0.00341295	    -20.16045535	     -3.59015755	     -8.99413988	     -3.10498748	     12.09665635	      5.22876796	    -13.82850613	     17.00231865	     48.75263107	      0.00000000	     34.32000000
      2.52000000	      3.57881064	     -5.54424510	     -8.64209318	     -0.00566907	      0.00344090	      0.00346623	    -20.15554143	     -3.60790962	     -9.00592831	     -3.10663495	     12.05305832	      5.24451092	    -13.85030606	     16.99993955	     48.75575406	      0.00000000	     34.32000000
      2.53000000	      3.59354088	     -5.54795248	     -8.65280242	     -0.00567937	      0.00342178	      0.00346111	    -20.14973044	     -3.63684726	     -9.01127089	     -3.11763866	     12.01268110	      5.26242400	    -13.87547861	     17.00497408	     48.76151788	      0.00000000	     34.32000000
      2.54000000	      3.54726448	     -5.49055725	     -8.65219414	     -0.00567498	      0.00350345	      0.00326891	    -20.12820376	     -3.69255513	     -8.99413716	     -3.14277105	     11.95158709	      5.29146144	    -13.90994499	     16.99402611	     48.77621561	      0.00000000	     34.32000000
      2.55000000	      3.42016148	     -5.41971993	     -8.66363248	     -0.00562275	      0.00353978	      0.00301294	    -20.09830757	     -3.74647602	     -8.99008290	     -3.15312219	     11.84250621	      5.33149719	    -13.95753393	     16.91323520	     48.79592077	      0.00000000	     34.32000000
      2.56000000	      3.38395201	     -5.44657408	     -8.67009857	     -0.00549271	      0.00361868	      0.00292741	    -20.10162810	     -3.76911348	     -9.01926936	     -3.15700784	     11.79152680	      5.35148930	    -13.98960467	     16.88225060	     48.80656689	      0.00000000	     34.32000000
      2.57000000	      3.38409663	     -5.44776452	     -8.67085718	     -0.00554517	      0.00367071	      0.00278735	    -20.10179551	     -3.76909791	     -9.01991834	     -3.15667374	     11.79053740	      5.35174321	    -13.99005690	     16.88155471	     48.80662677	      0.00000000	     34.32000000
      2.58000000	      3.17643314	     -5.42998091	     -8.69511898	     -0.00540092	      0.00353644	      0.00265576	    -20.11953090	     -3.83645903	     -9.11341167	     -3.17147668	     11.65003878	      5.40920191	    -14.11215426	     16.75710798	     48.86381843	      0.00000000	     34.32000000
      2.59000000	      3.20541082	     -5.42818933	     -8.71117956	     -0.00525352	      0.00367741	      0.00254588	    -20.11529178	     -3.84753521	     -9.12456213	     -3.16956061	     11.61230483	      5.42161625	    -14.12811596	     16.72697331	     48.86700525	      0.00000000	     34.32000000
      2.60000000	      3.09327206	     -5.37278246	     -8.75623720	     -0.00518626	      0.00355659	      0.00230503	    -20.15345516	     -3.91202834	     -9.25886292	     -3.18100972	     11.46360224	      5.48272510	    -14.26259016	     16.59135351	     48.93014925	      0.00000000	     34.32000000
      2.61000000	      3.18348165	     -5.44945829	     -8.82685435	     -0.00514284	      0.00346138	      0.00230819	    -20.15799616	     -3.92315972	     -9.32520028	     -3.16032351	     11.35485700	      5.51447990	    -14.32232206	     16.54527463	     48.93435498	      0.00000000	     34.32000000
      2.62000000	      3.25948833	     -5.56502264	     -8.87359439	     -0.00509068	      0.00335274	      0.00248353	    -20.21154659	     -4.01850712	     -9.48656522	     -3.19228098	     11.19134468	      5.58990852	    -14.53027258	     16.58564352	     48.98076372	      0.00000000	     34.32000000
      2.63000000	      3.06928721	     -5.03339560	     -8.70593935	     -0.00539052	      0.00376555	      0.00218346	    -20.49549072	     -4.51447086	     -9.91778477	     -3.56192838	     11.08648621	      5.79392491	    -17.60495007	     16.40715563	     52.38650475	      0.00000000	     34.32000000
      2.64000000	      3.09170623	     -5.06634563	     -8.74294570	     -0.00529088	      0.00363353	      0.00236494	    -20.50054710	     -4.50219613	     -9.94288716	     -3.54634476	     11.06283346	      5.79679002	    -17.62385314	     16.41821413	     52.38592257	      0.00000000	     34.32000000
      2.65000000	      3.05820531	     -5.06318425	     -8.73708608	     -0.00519533	      0.00371992	      0.00230097	    -20.51140524	     -4.49041920	     -9.94952731	     -3.54526558	     11.09003942	      5.78749228	    -17.62552353	     16.44319136	     52.38635941	      0.00000000	     34.32000000
      2.66000000	      3.01559608	     -5.06280922	     -8.70062932	     -0.00520764	      0.00389511	      0.00212063	    -20.52694409	     -4.48387247	     -9.96119854	     -3.54935717	     11.12047745	      5.77939520	    -17.62603778	     16.42666990	     52.38142472	      0.00000000	     34.32000000
      2.67000000	      2.97571501	     -5.12352712	     -8.62069954	     -0.00525427	      0.00397489	      0.00205942	    -20.56700106	     -4.49121204	    -10.02192948	     -3.56084003	     11.13356177	      5.78245358	    -17.64442928	     16.30244195	     52.36210864	      0.00000000	     34.32000000
      2.68000000	      2.97763398	     -5.12465293	     -8.62054947	     -0.00531092	      0.00377732	      0.00197555	    -20.56725414	     -4.49189959	    -10.02259263	     -3.56119491	     11.13286323	      5.78286552	    -17.64482249	     16.30191788	     52.36201343	      0.00000000	     34.32000000
      2.69000000	      3.02322861	     -5.17388074	     -8.65040857	     -0.00521728	      0.00358748	      0.00223089	    -20.58903113	     -4.49657268	    -10.06341180	     -3.56409739	     11.12571941	      5.78833542	    -17.67005155	     16.33706716	     52.35947620	      0.00000000	     34.32000000
